<svg style="display: none;" aria-hidden="true" xmlns="http://www.w3.org/2000/svg" xmlns:xlink="http://www.w3.org/1999/xlink"><symbol viewBox="0 0 32 32" fill="none" id="svg-card"><path d="M12.1619 23.9199C9.93408 23.9199 8.12158 25.7324 8.12158 27.9603 8.12158 30.1881 9.93408 32.0006 12.1619 32.0006 14.3898 32.0006 16.2023 30.1881 16.2023 27.9603 16.2023 25.7324 14.3897 23.9199 12.1619 23.9199zM12.1619 29.5764C11.2706 29.5764 10.5458 28.8516 10.5458 27.9603 10.5458 27.069 11.2706 26.3442 12.1619 26.3442 13.0528 26.3442 13.7781 27.069 13.7781 27.9603 13.7781 28.8515 13.0533 29.5764 12.1619 29.5764zM24.1212 23.9199C21.8933 23.9199 20.0808 25.7324 20.0808 27.9603 20.0808 30.1881 21.8933 32.0006 24.1212 32.0006 26.349 32.0006 28.1615 30.1881 28.1615 27.9603 28.1615 25.7324 26.349 23.9199 24.1212 23.9199zM24.1212 29.5764C23.2299 29.5764 22.5051 28.8516 22.5051 27.9603 22.5051 27.069 23.2299 26.3442 24.1212 26.3442 25.0125 26.3442 25.7373 27.069 25.7373 27.9603 25.7373 28.8515 25.0125 29.5764 24.1212 29.5764zM31.1304 7.89211C30.9001 7.60279 30.5511 7.43436 30.1818 7.43436H8.9579L7.8561 1.86594C7.75953 1.37826 7.37491.998883 6.8856.909196L2.03718.0203247C1.37743-.1013.747124.335511.626312.994071.5055 1.65263.941436 2.28413 1.60006 2.40494L5.63798 3.14512 9.19509 21.1242C9.3074 21.6919 9.80559 22.1012 10.3841 22.1012H27.3536C27.918 22.1012 28.4073 21.7121 28.5346 21.1614L31.3628 8.91916C31.446 8.55917 31.3604 8.18098 31.1304 7.89211zM26.3895 19.677H11.3796L9.43746 9.85897H28.6573L26.3895 19.677z" fill="#fff"/></symbol><symbol viewBox="0 0 434 16" id="svg-decor"><g clip-path="url(#bclip0_1_91)"><path fill-rule="evenodd" clip-rule="evenodd" d="M127.145 4.45097C57.2863 6.02579 17.6202 11.4266 2.56321 15.8456C1.50334 16.1566 0.391989 15.5496 0.0809402 14.4897C-0.230109 13.4298 0.37693 12.3185 1.4368 12.0074C17.0465 7.42632 57.1804 2.02716 127.055 0.451983C197.003 -1.12486 296.906 1.12859 432.159 11.9328C433.26 12.0208 434.082 12.9847 433.994 14.0857C433.906 15.1868 432.942 16.0081 431.841 15.9201C296.694 5.12437 196.93 2.87781 127.145 4.45097Z" /></g><defs><clipPath id="bclip0_1_91"><path fill="#fff" d="M0 0H434V16H0z"/></clipPath></defs></symbol><symbol viewBox="0 0 32 32" id="svg-facebook"><path fill-rule="evenodd" clip-rule="evenodd" d="M28.9 1.5H3.1C2.21634 1.5 1.5 2.21634 1.5 3.1V28.9C1.5 29.7837 2.21634 30.5 3.1 30.5H17V19.285H13.225V14.895H17V11.665C17 7.92 19.29 5.88 22.63 5.88C23.7555 5.87755 24.8804 5.93429 26 6.05V9.965H23.7C21.88 9.965 21.525 10.825 21.525 12.095V14.89H25.875L25.31 19.28H21.5V30.5H28.9C29.7837 30.5 30.5 29.7837 30.5 28.9V3.1C30.5 2.21634 29.7837 1.5 28.9 1.5Z"/></symbol><symbol viewBox="0 0 32 32" id="svg-linkedin"><path fill-rule="evenodd" clip-rule="evenodd" d="M26.2126 26.2112H21.9123V19.48C21.9123 17.8753 21.8833 15.8115 19.676 15.8115C17.4396 15.8115 17.098 17.5612 17.098 19.3656V26.2112H12.801V12.3718H16.9224V14.2632H16.982C17.5572 13.1757 18.959 12.0286 21.0519 12.0286C25.4086 12.0286 26.2126 14.8932 26.2126 18.6213V26.2112ZM7.95125 10.4819C6.56884 10.4819 5.45389 9.36383 5.45389 7.98633C5.45389 6.61044 6.56884 5.49233 7.95125 5.49233C9.3256 5.49233 10.4438 6.61044 10.4438 7.98633C10.4438 9.36383 9.3256 10.4819 7.95125 10.4819ZM5.79546 26.2112H10.1022V12.3718H5.79546V26.2112ZM28.3539 1.5H3.63806C2.45866 1.5 1.5 2.43606 1.5 3.59122V28.4072C1.5 29.5623 2.45866 30.5 3.63806 30.5H28.3539C29.5365 30.5 30.5 29.5623 30.5 28.4072V3.59122C30.5 2.43606 29.5365 1.5 28.3539 1.5Z"/></symbol><symbol viewBox="0 0 129 129" fill="none" id="svg-play"><path opacity=".4" d="M64.3055 128.611C99.8204 128.611 128.611 99.8204 128.611 64.3055C128.611 28.7906 99.8204 0 64.3055 0C28.7906 0 0 28.7906 0 64.3055C0 99.8204 28.7906 128.611 64.3055 128.611Z" fill="#fff"/><path opacity=".3" d="M64.5 117C93.4949 117 117 93.4949 117 64.5C117 35.5051 93.4949 12 64.5 12C35.5051 12 12 35.5051 12 64.5C12 93.4949 35.5051 117 64.5 117Z" fill="#fff"/><path d="M46 49.7947C46 45.2617 51.0824 42.4895 55.0188 44.8755L79.2452 59.5602C82.9767 61.822 82.9767 67.1369 79.2452 69.3987L55.0188 84.0834C51.0824 86.4694 46 83.6972 46 79.1642V49.7947Z" fill="#141821"/></symbol><symbol viewBox="0 0 29 29" fill="none" id="svg-rhomb"><path d="M28.2847 14.1421L14.1426 0L0.000458002 14.1421L14.1426 28.2843L28.2847 14.1421Z" fill="#57B8FF"/><path d="M25.4563 14.1418L14.1426 2.82812L2.82889 14.1418L14.1426 25.4555L25.4563 14.1418Z" fill="#fff"/><path d="M21.2137 14.1424L14.1426 7.07129L7.07153 14.1424L14.1426 21.2134L21.2137 14.1424Z" fill="#57B8FF"/></symbol><symbol viewBox="0 0 32 32" id="svg-tumblr"><path fill-rule="evenodd" clip-rule="evenodd" d="M1.5 15.9896C1.5 7.99927 7.99414 1.5 16.0222 1.5C24.0059 1.5 30.5 7.95654 30.5 15.9896C30.5 23.9798 24.0059 30.5 16.0222 30.5C7.99414 30.5 1.5 23.9798 1.5 15.9896ZM18.8553 21.018C17.8055 21.018 17.1458 20.566 17.1458 19.2585V14.8965H20.2228V11.7443H17.1458V7.44318H14.5086C14.3867 9.33716 13.324 11.5242 10.7847 12.1843V14.8965H13.0911V19.906C13.0911 23.0341 14.9836 24.3417 17.5247 24.3417H20.3448V21.018H18.8553Z"/></symbol><symbol viewBox="0 0 32 32" id="svg-twitter"><path fill-rule="evenodd" clip-rule="evenodd" d="M5.125 30.5H26.875C28.876 30.5 30.5 28.876 30.5 26.875V5.125C30.5 3.12402 28.876 1.5 26.875 1.5H5.125C3.12399 1.5 1.5 3.12402 1.5 5.125V26.875C1.5 28.876 3.12399 30.5 5.125 30.5ZM23.2138 12.7882C23.2138 17.6965 19.4728 23.366 12.636 23.366C10.5408 23.366 8.58325 22.7497 6.94476 21.7057C7.23477 21.7419 7.53201 21.7565 7.82925 21.7565C9.56927 21.7565 11.1715 21.162 12.4475 20.1615C10.8235 20.1324 9.44601 19.0594 8.97476 17.5804C9.19952 17.624 9.43152 17.6458 9.67078 17.6458C10.0115 17.6458 10.3378 17.6022 10.6495 17.5152C8.953 17.1745 7.66977 15.6664 7.66977 13.8685V13.8177C8.17001 14.0932 8.74277 14.2599 9.35178 14.2817C8.35852 13.6147 7.69876 12.4765 7.69876 11.186C7.69876 10.5045 7.88 9.86646 8.19901 9.31549C10.0333 11.563 12.7738 13.0492 15.8623 13.2015C15.8043 12.926 15.768 12.6432 15.768 12.3532C15.768 10.3015 17.4355 8.63397 19.4873 8.63397C20.553 8.63397 21.5173 9.0835 22.1988 9.80847C23.047 9.64172 23.8445 9.33722 24.5623 8.90948C24.2795 9.77948 23.6923 10.5117 22.9238 10.9684C23.6778 10.8742 24.3955 10.6785 25.0625 10.3812C24.5623 11.128 23.9315 11.7877 23.2065 12.3097C23.2118 12.4262 23.2133 12.5427 23.2136 12.6591C23.2138 12.7021 23.2138 12.7452 23.2138 12.7882Z"/></symbol></svg>